<svg viewBox="0 0 200 187" xmlns="http://www.w3.org/2000/svg" xmlns:xlink="http://www.w3.org/1999/xlink">
    <mask id="mask0" mask-type="alpha">
        <path d="M190.312 36.4879C206.582 62.1187 201.309 102.826 182.328 134.186C163.346 165.547 
        130.807 187.559 100.226 186.353C69.6454 185.297 41.0228 161.023 21.7403 129.362C2.45775 
        97.8511 -7.48481 59.1033 6.67581 34.5279C20.9871 10.1032 59.7028 -0.149132 97.9666 
        0.00163737C136.23 0.303176 174.193 10.857 190.312 36.4879Z"/>
    </mask>
    <g mask="url(#mask0)">
        <path d="M190.312 36.4879C206.582 62.1187 201.309 102.826 182.328 134.186C163.346 
        165.547 130.807 187.559 100.226 186.353C69.6454 185.297 41.0228 161.023 21.7403 
        129.362C2.45775 97.8511 -7.48481 59.1033 6.67581 34.5279C20.9871 10.1032 59.7028 
        -0.149132 97.9666 0.00163737C136.23 0.303176 174.193 10.857 190.312 36.4879Z"/>
        <image href=""/>
    </g>
</svg>
<svg viewBox="0 0 200 200" xmlns="http://www.w3.org/2000/svg">
  <path fill="#8A3FFC" d="M65,-38.1C78,-15,78.1,15.1,65.1,38.3C52.1,61.5,26.1,77.8,-0.9,
  78.4C-27.9,78.9,-55.8,63.6,-69.7,39.9C-83.6,16.2,-83.5,-16,-69.5,-39.6C-55.6,-63.2,-27.8,
  -78.3,-0.9,-77.8C26,-77.3,52,-61.2,65,-38.1Z" transform="translate(100 100)" />
</svg>